<svg
                xmlns="http://www.w3.org/2000/svg"
                width="24"
                height="21"
                viewBox="0 0 24 21"
              >
                <path
                  fill="#2C2C38"
                  fill-rule="evenodd"
                  d="M22.025 11.883H7.005l4.779 4.768c.771.772.771 2.023 0 2.794-.774.771-2.027.771-2.798 0L.898 11.376c-.026-.024-.06-.032-.085-.057-.025-.025-.033-.059-.057-.086l-.169-.169c-.773-.771-.773-2.022 0-2.793.311-.31.705-.461 1.109-.522L8.894.565c.745-.742 1.952-.742 2.694 0 .744.742.744 1.946 0 2.689L6.9 7.932h15.125c1.091 0 1.975.884 1.975 1.975 0 1.091-.884 1.976-1.975 1.976z"
                ></path>
              </svg>