<svg width="1838" height="206" viewBox="0 0 1838 206" fill="none" xmlns="http://www.w3.org/2000/svg" class="Header_logo__18X2d"><path d="M1405 7H1402V198H1405V7Z" fill="#A5BAB5"></path><path d="M1471 169V26H1511.8L1532 97.8C1533.47 103.133 1534.93 109.067 1536.4 115.6C1538 122 1539.2 127.067 1540 130.8L1541 136.4H1541.4C1543.93 122.667 1546.87 109.8 1550.2 97.8L1570.4 26H1611.8V169H1584.8V87L1586 57.4H1585.6C1583.47 68.6 1581.4 77.667 1579.4 84.6L1554.8 169H1527L1503 84.6L1496.8 57.4H1496.4C1497.2 69.4 1497.6 79.267 1497.6 87V169H1471ZM1631.69 169V66.4H1658.89V169H1631.69ZM1631.69 50.4V26H1658.89V50.4H1631.69ZM1703.02 66.4V80.4H1703.62C1710.68 69.2 1720.82 63.6 1734.02 63.6C1744.55 63.6 1753.08 67.2 1759.62 74.4C1766.15 81.467 1769.42 90.667 1769.42 102V169H1742.22V106C1742.22 100.4 1740.62 95.867 1737.42 92.4C1734.35 88.933 1730.02 87.2 1724.42 87.2C1718.42 87.2 1713.42 89.4 1709.42 93.8C1705.55 98.2 1703.62 103.867 1703.62 110.8V169H1676.42V66.4H1703.02ZM1778.23 84.4V66.4H1792.43V34.4H1819.03V66.4H1836.63V84.4H1819.03V138.8C1819.03 145.6 1822.43 149 1829.23 149L1837.23 148.8V168.8C1833.1 169.067 1827.43 169.2 1820.23 169.2C1812.36 169.2 1805.76 167.333 1800.43 163.6C1795.1 159.733 1792.43 153.4 1792.43 144.6V84.4H1778.23Z" fill="#14B371"></path><path d="M106.884 133.805L106.74 133.906L106.294 134.194C101.215 137.38 95.5095 139.433 89.5664 140.214C83.6232 140.996 77.5816 140.487 71.8525 138.722C66.1235 136.958 60.8416 133.979 56.3661 129.988C51.8907 125.998 48.3267 121.089 45.9168 115.597C43.5068 110.105 42.3074 104.157 42.4003 98.1592C42.4931 92.1613 43.8759 86.2538 46.4546 80.8387C49.0333 75.4236 52.7474 70.6279 57.3442 66.778C61.941 62.928 67.3126 60.1142 73.0935 58.528V72.9295L126.341 36.4648L73.0935 0V15.8417C52.0391 18.4811 32.7796 29.0459 19.2309 45.3879C5.68219 61.7299 -1.13856 82.6223 0.155478 103.817C1.44952 125.012 10.7612 144.918 26.1972 159.488C41.6333 174.057 62.0348 182.197 83.2536 182.252H85.7432C99.5926 181.945 113.107 177.934 124.885 170.635C136.662 163.337 146.273 153.017 152.719 140.746L182.466 84.9404L106.884 133.805Z" fill="url(#paint0_linear)"></path><path d="M261.315 43.8384C246.263 30.1997 226.759 22.5195 206.456 22.236H203.981C190.131 22.5511 176.618 26.5652 164.839 33.8627C153.061 41.1602 143.446 51.4758 136.99 63.7413L107.186 119.591L180.897 71.9214C182.07 71.0726 183.285 70.2843 184.538 69.5596C189.668 66.5472 195.382 64.6669 201.297 64.0446C207.212 63.4223 213.191 64.0724 218.835 65.9513C224.478 67.8302 229.655 70.8945 234.019 74.9389C238.382 78.9833 241.832 83.9143 244.136 89.4015C246.44 94.8887 247.545 100.805 247.378 106.755C247.211 112.704 245.775 118.55 243.166 123.898C240.557 129.247 236.836 133.976 232.252 137.769C227.668 141.561 222.327 144.329 216.587 145.888V131.486L163.34 167.951L216.587 204.416V188.574C232.35 186.43 247.172 179.823 259.308 169.532C271.443 159.24 280.388 145.693 285.088 130.485C289.788 115.276 290.047 99.0409 285.835 83.6901C281.623 68.3394 273.116 54.5127 261.315 43.8384Z" fill="url(#paint1_linear)"></path><path d="M386.762 54.7836H348.654V28.5583H456.041V54.7836H418.02V166.929H386.762V54.7836Z" fill="url(#paint2_linear)"></path><path d="M466.158 61.5955H491.601L493.846 80.0007H494.624C502.28 65.9448 513.793 59.0464 524.528 59.0464C530.544 59.0464 534.026 59.8241 537.077 61.1634L531.882 88.1088C528.19 87.0363 524.371 86.4647 520.528 86.4094C512.598 86.4094 502.956 91.5219 497.344 105.88V166.929H466.158V61.5955Z" fill="url(#paint3_linear)"></path><path d="M549.598 126.979V61.5955H580.783V123.047C580.783 138.197 584.841 142.936 593.85 142.936C601.693 142.936 606.471 139.652 612.559 131.414V61.7107H643.744V167.044H618.301L616.056 152.426H615.279C606.5 162.91 596.57 169.578 582.179 169.578C559.355 169.463 549.598 153.29 549.598 126.979Z" fill="url(#paint4_linear)"></path><path d="M661.791 154.73L675.822 135.288C685.349 142.489 694.156 146.349 702.964 146.349C712.246 146.349 716.261 142.806 716.261 137.29C716.261 130.349 705.828 127.209 695.005 122.961C682.053 117.963 667.159 109.394 667.159 91.9828C667.159 72.3823 683.075 59.0176 707.367 59.0176C723.485 59.0176 735.502 65.5415 744.453 72.3535L730.494 91.0755C723.011 85.6317 715.628 82.0889 708.346 82.0889C700.287 82.0889 696.315 85.2429 696.315 90.4994C696.315 97.2106 706.173 99.7884 717.081 103.763C730.408 108.689 745.432 116.206 745.432 135.447C745.432 154.687 730.408 169.406 702.259 169.406C688.285 169.463 672.455 163.458 661.791 154.73Z" fill="url(#paint5_linear)"></path><path d="M765.047 128.62V86.0782H750.656V62.7908L766.774 61.5955L770.415 33.6133H796.218V61.5955H821.46V86.0782H796.218V128.246C796.218 140.185 801.644 144.981 809.846 144.981C813.29 144.873 816.693 144.202 819.92 142.993L824.828 165.647C817.287 168.165 809.391 169.453 801.442 169.463C775.394 169.463 765.047 153.031 765.047 128.62Z" fill="url(#paint6_linear)"></path><path d="M837.952 149.459L855.912 128.001C865.742 136.57 878.492 142.403 889.876 142.403C902.914 142.403 909.304 137.261 909.304 129.052C909.304 120.339 901.446 117.531 889.372 112.577L871.397 104.901C857.006 99.0684 843.493 87.2879 843.493 67.1833C843.493 44.256 863.957 25.9516 892.739 25.9516C909.359 25.9777 925.314 32.4813 937.222 44.0832L921.421 63.8565C912.311 56.8574 903.648 53.0122 892.639 53.0122C881.629 53.0122 875.009 57.5055 875.009 65.4263C875.009 73.9088 884.047 76.9476 896.121 81.8009L913.736 89.0017C930.617 95.828 941.165 107.09 941.165 126.633C941.165 149.675 922.025 169.521 889.07 169.521C870.13 169.428 851.905 162.276 837.952 149.459Z" fill="url(#paint7_linear)"></path><path d="M953.542 61.5955H984.526L994.6 110.359C996.442 120.757 997.593 130.997 999.363 141.668H1000.21C1002.05 130.997 1003.9 120.397 1006.44 110.359L1017.96 61.5955H1045.04L1056.87 110.359C1059.42 120.757 1061.19 130.997 1063.46 141.668H1064.31C1066.15 130.997 1067.3 120.757 1069.15 110.359L1079.22 61.5955H1108L1082.85 166.929H1046.26L1036.55 124.818C1034.64 115.054 1032.87 105.362 1030.94 94.0278H1030.09C1028.25 105.362 1026.75 115.126 1024.75 124.905L1015.52 166.929H979.906L953.542 61.5955Z" fill="url(#paint8_linear)"></path><path d="M1119.85 137.708C1119.85 115.515 1137.49 103.504 1179.11 99.1116C1178.49 89.8946 1173.9 83.8891 1162.47 83.8891C1153.64 83.8891 1144.83 87.6047 1134.63 93.3942L1123.53 72.9151C1136.88 64.735 1151.94 59.0464 1168.49 59.0464C1195.4 59.0464 1210.29 74.4273 1210.29 106.701V166.929H1184.86L1182.61 156.127H1181.9C1173.04 163.933 1163.11 169.463 1151.28 169.463C1132.02 169.463 1119.85 155.45 1119.85 137.708ZM1179.11 117.92C1156.93 120.916 1149.71 127.267 1149.71 135.202C1149.71 141.999 1154.37 145.283 1161.78 145.283C1168.83 145.341 1173.58 141.841 1179.11 136.325V117.92Z" fill="url(#paint9_linear)"></path><path d="M1236.49 61.5955H1261.93L1264.17 71.9646H1264.95C1273.21 64.591 1283.93 59.0032 1294.91 59.0032C1320.4 59.0032 1336 80.0871 1336 112.548C1336 148.696 1314.51 169.42 1291.73 169.42C1282.67 169.42 1274.16 165.46 1266.62 158.432L1267.67 175.094V206H1236.49V61.5955ZM1304.04 112.966C1304.04 94.0566 1298.28 84.5948 1285.76 84.5948C1279.34 84.5948 1273.83 87.4751 1267.67 94.0278V137.233C1272.25 141.468 1278.23 143.845 1284.47 143.9C1295.33 143.929 1304.04 134.741 1304.04 112.966Z" fill="url(#paint10_linear)"></path><defs><linearGradient id="paint0_linear" x1="38198.2" y1="9252.19" x2="112203" y2="18794.9" gradientUnits="userSpaceOnUse"><stop stop-color="#000"></stop><stop offset="1" stop-color="#0378D8"></stop></linearGradient><linearGradient id="paint1_linear" x1="38198.2" y1="9252.19" x2="112203" y2="18794.9" gradientUnits="userSpaceOnUse"><stop stop-color="#000"></stop><stop offset="1" stop-color="#0378D8"></stop></linearGradient><linearGradient id="paint2_linear" x1="38198.2" y1="9252.19" x2="112203" y2="18794.9" gradientUnits="userSpaceOnUse"><stop stop-color="#000"></stop><stop offset="1" stop-color="#0378D8"></stop></linearGradient><linearGradient id="paint3_linear" x1="38198.2" y1="9252.19" x2="112203" y2="18794.9" gradientUnits="userSpaceOnUse"><stop stop-color="#000"></stop><stop offset="1" stop-color="#0378D8"></stop></linearGradient><linearGradient id="paint4_linear" x1="38198.2" y1="9252.19" x2="112203" y2="18794.9" gradientUnits="userSpaceOnUse"><stop stop-color="#000"></stop><stop offset="1" stop-color="#0378D8"></stop></linearGradient><linearGradient id="paint5_linear" x1="38198.2" y1="9252.19" x2="112203" y2="18794.9" gradientUnits="userSpaceOnUse"><stop stop-color="#000"></stop><stop offset="1" stop-color="#0378D8"></stop></linearGradient><linearGradient id="paint6_linear" x1="38198.2" y1="9252.19" x2="112203" y2="18794.9" gradientUnits="userSpaceOnUse"><stop stop-color="#000"></stop><stop offset="1" stop-color="#0378D8"></stop></linearGradient><linearGradient id="paint7_linear" x1="38198.2" y1="9252.19" x2="112203" y2="18794.9" gradientUnits="userSpaceOnUse"><stop stop-color="#000"></stop><stop offset="1" stop-color="#0378D8"></stop></linearGradient><linearGradient id="paint8_linear" x1="38198.2" y1="9252.19" x2="112203" y2="18794.9" gradientUnits="userSpaceOnUse"><stop stop-color="#000"></stop><stop offset="1" stop-color="#0378D8"></stop></linearGradient><linearGradient id="paint9_linear" x1="38198.2" y1="9252.19" x2="112203" y2="18794.9" gradientUnits="userSpaceOnUse"><stop stop-color="#000"></stop><stop offset="1" stop-color="#0378D8"></stop></linearGradient><linearGradient id="paint10_linear" x1="38198.2" y1="9252.19" x2="112203" y2="18794.9" gradientUnits="userSpaceOnUse"><stop stop-color="#000"></stop><stop offset="1" stop-color="#0378D8"></stop></linearGradient></defs></svg>