<svg xmlns="http://www.w3.org/2000/svg" width="60" height="60" viewBox="0 0 60 60" fill="none">
<circle cx="30" cy="30" r="28" fill="url(#paint0_linear)"/>
<path d="M30 39C34.9706 39 39 34.9706 39 30C39 25.0294 34.9706 21 30 21C25.0294 21 21 25.0294 21 30C21 34.9706 25.0294 39 30 39Z" fill="url(#paint1_linear)"/>
<path d="M30.1715 29.2501H30.1561C29.6798 29.1461 29.3711 28.8731 29.3402 28.5118C29.3296 28.3771 29.3567 28.2421 29.4172 28.1271C29.4776 28.0122 29.5683 27.9236 29.6754 27.875C29.8653 27.7589 30.0844 27.7281 30.2921 27.7884C30.4998 27.8487 30.6819 27.9958 30.8044 28.2025C30.9115 28.3481 31.0606 28.4417 31.2229 28.4653C31.3852 28.4889 31.5491 28.4409 31.6831 28.3304C31.8171 28.2199 31.9116 28.0549 31.9485 27.8671C31.9853 27.6793 31.9619 27.4821 31.8826 27.3135C31.6066 26.8641 31.2226 26.5227 30.7801 26.3335V25.7798C30.7801 25.573 30.7104 25.3747 30.5864 25.2284C30.4623 25.0822 30.294 25 30.1186 25C29.9431 25 29.7749 25.0822 29.6508 25.2284C29.5268 25.3747 29.4571 25.573 29.4571 25.7798V26.3127C29.3407 26.3524 29.2272 26.4028 29.1175 26.4635C28.7515 26.6469 28.4462 26.9657 28.2477 27.3719C28.0492 27.7781 27.9682 28.2494 28.0172 28.7146C28.1076 29.5204 28.6324 30.4666 29.8319 30.7577H29.8452C30.3215 30.8565 30.6302 31.1295 30.6699 31.4908C30.6804 31.6248 30.6537 31.7592 30.5936 31.8737C30.5335 31.9882 30.4434 32.0764 30.3369 32.125C30.1468 32.2418 29.9271 32.273 29.7189 32.2127C29.5107 32.1524 29.3283 32.0048 29.2057 31.7975C29.156 31.7134 29.0928 31.6416 29.0196 31.5862C28.9464 31.5309 28.8647 31.4931 28.7791 31.475C28.6935 31.4569 28.6057 31.4588 28.5208 31.4807C28.4358 31.5026 28.3554 31.544 28.284 31.6025C28.2126 31.6611 28.1517 31.7356 28.1048 31.8219C28.0578 31.9082 28.0258 32.0046 28.0104 32.1055C27.9951 32.2063 27.9967 32.3098 28.0153 32.41C28.0338 32.5101 28.0689 32.605 28.1186 32.6891C28.4391 33.2158 28.9081 33.5908 29.4416 33.7471V34.2202C29.4416 34.427 29.5113 34.6253 29.6354 34.7716C29.7595 34.9178 29.9277 35 30.1032 35C30.2786 35 30.4469 34.9178 30.5709 34.7716C30.695 34.6253 30.7647 34.427 30.7647 34.2202V33.6015C30.8066 33.5807 30.8507 33.5625 30.8926 33.5391C31.2565 33.3547 31.5598 33.0361 31.757 32.6311C31.9543 32.2261 32.0347 31.7567 31.9863 31.2932C31.8937 30.4874 31.3689 29.5412 30.1715 29.2501Z" fill="url(#paint2_linear)"/>
<path d="M33.8188 18.99H16.1793C15.9257 18.9896 15.679 18.9117 15.4756 18.7677C15.2722 18.6238 15.123 18.4215 15.05 18.1907C14.977 17.96 14.9841 17.713 15.0702 17.4864C15.1564 17.2597 15.317 17.0655 15.5283 16.9323L19.904 14.1886C20.0335 14.1067 20.1786 14.0498 20.3312 14.0213C20.4837 13.9927 20.6407 13.9929 20.7932 14.022C20.9457 14.0511 21.0906 14.1084 21.2198 14.1907C21.3489 14.273 21.4597 14.3786 21.5459 14.5016C21.6321 14.6246 21.6919 14.7625 21.722 14.9075C21.7521 15.0525 21.7519 15.2017 21.7213 15.3465C21.6907 15.4914 21.6303 15.6291 21.5437 15.7519C21.4571 15.8746 21.3459 15.9799 21.2165 16.0618L20.1114 16.7552H33.8188C34.1321 16.7552 34.4325 16.8734 34.654 17.0839C34.8756 17.2944 35 17.5799 35 17.8776C35 18.1753 34.8756 18.4608 34.654 18.6713C34.4325 18.8817 34.1321 19 33.8188 19V18.99Z" fill="url(#paint3_linear)"/>
<path d="M39.444 46C39.194 46.0005 38.9503 45.9148 38.748 45.7553C38.5457 45.5957 38.3952 45.3706 38.3182 45.1122C38.2412 44.8538 38.2416 44.5756 38.3193 44.3175C38.3971 44.0593 38.5483 43.8347 38.751 43.6759L40.1658 42.5665H26.1811C25.8679 42.5665 25.5675 42.4313 25.3459 42.1907C25.1244 41.95 25 41.6236 25 41.2833C25 40.9429 25.1244 40.6165 25.3459 40.3759C25.5675 40.1352 25.8679 40 26.1811 40H43.8194C44.0691 40.0001 44.3124 40.0862 44.5143 40.246C44.7162 40.4058 44.8662 40.6309 44.9429 40.8892C45.0196 41.1474 45.019 41.4254 44.9412 41.6832C44.8633 41.9411 44.7123 42.1654 44.5097 42.3241L40.1343 45.7462C39.9348 45.9083 39.693 45.9972 39.444 46V46Z" fill="url(#paint4_linear)"/>
<defs>
<linearGradient id="paint0_linear" x1="30" y1="2" x2="30" y2="58" gradientUnits="userSpaceOnUse">
<stop stop-color="#63BC87"/>
<stop offset="1" stop-color="#51B078"/>
</linearGradient>
<linearGradient id="paint1_linear" x1="30" y1="39" x2="30" y2="20.9974" gradientUnits="userSpaceOnUse">
<stop stop-color="#B7DEC7"/>
<stop offset="0.22" stop-color="#D0E9DA"/>
<stop offset="0.52" stop-color="#EAF5EE"/>
<stop offset="0.79" stop-color="#F9FCFB"/>
<stop offset="1" stop-color="white"/>
</linearGradient>
<linearGradient id="paint2_linear" x1="30.0017" y1="35.0052" x2="30.0017" y2="25" gradientUnits="userSpaceOnUse">
<stop stop-color="#7AC397"/>
<stop offset="0.21" stop-color="#8FCCA8"/>
<stop offset="0.54" stop-color="#ACD9BE"/>
<stop offset="0.73" stop-color="#B7DEC7"/>
</linearGradient>
<linearGradient id="paint3_linear" x1="24.999" y1="18.99" x2="24.999" y2="13.9915" gradientUnits="userSpaceOnUse">
<stop stop-color="#7AC397"/>
<stop offset="0.01" stop-color="#7CC498"/>
<stop offset="0.24" stop-color="#96CFAD"/>
<stop offset="0.48" stop-color="#A8D7BB"/>
<stop offset="0.73" stop-color="#B3DCC4"/>
<stop offset="1" stop-color="#B7DEC7"/>
</linearGradient>
<linearGradient id="paint4_linear" x1="2225" y1="822.28" x2="2225" y2="969.94" gradientUnits="userSpaceOnUse">
<stop stop-color="#7AC397"/>
<stop offset="0.01" stop-color="#7CC498"/>
<stop offset="0.24" stop-color="#96CFAD"/>
<stop offset="0.48" stop-color="#A8D7BB"/>
<stop offset="0.73" stop-color="#B3DCC4"/>
<stop offset="1" stop-color="#B7DEC7"/>
</linearGradient>
</defs>
</svg>