<svg width="56" height="56" viewBox="0 0 56 56" fill="none" xmlns="http://www.w3.org/2000/svg">
<circle cx="28" cy="28" r="28" fill="url(#paint0_linear)"/>
<path d="M28.4703 44.1128C28.4703 44.1128 22.1708 44.5114 18.248 39.8527C14.0186 34.8208 15.0306 26.9011 18.0666 22.2653C18.1714 22.1059 18.3186 21.979 18.4918 21.8989C18.6649 21.8188 18.857 21.7888 19.0463 21.8122C19.2356 21.8356 19.4146 21.9115 19.563 22.0313C19.7114 22.1511 19.8234 22.3101 19.8862 22.4902C20.2976 23.6581 20.9237 24.8899 21.675 24.5858C22.9528 24.0747 24.5322 14.6856 30.6195 11.969C30.7571 11.9064 30.9069 11.8752 31.0581 11.8775C31.2093 11.8798 31.358 11.9156 31.4937 11.9823C31.6293 12.0491 31.7485 12.1451 31.8426 12.2634C31.9367 12.3817 32.0034 12.5195 32.0378 12.6667C32.393 14.2639 33.3846 17.4353 36.1114 21.5217C40.0981 27.5042 41.8077 31.9483 39.5869 37.1335C37.3662 42.3188 31.7414 44.1179 28.4703 44.1128Z" fill="url(#paint1_linear)"/>
<path d="M28.46 41.6364C28.46 41.6364 23.308 42.2881 21.192 37.0364C20.6315 35.7149 20.4388 34.2663 20.6345 32.8442C20.8302 31.4221 21.407 30.0794 22.3036 28.9583C22.3589 28.8871 22.4321 28.8317 22.5156 28.7979C22.5992 28.764 22.6903 28.7529 22.7796 28.7656C22.8689 28.7783 22.9532 28.8144 23.024 28.8703C23.0948 28.9261 23.1496 28.9997 23.1828 29.0836C23.538 30.0036 24.2944 31.3376 25.6412 31.0769C28.7666 30.4687 25.7 27.6269 28.8893 23.4639C28.9593 23.3746 29.0483 23.3019 29.1498 23.2512C29.2512 23.2004 29.3627 23.1728 29.4762 23.1704C29.5896 23.168 29.7022 23.1907 29.8057 23.2371C29.9093 23.2834 30.0013 23.3521 30.0751 23.4383C31.3094 24.8797 34.0592 28.4242 34.6061 31.9688C35.314 36.5688 33.3999 41.1586 28.46 41.6364V41.6364Z" fill="url(#paint2_linear)"/>
<defs>
<linearGradient id="paint0_linear" x1="28" y1="0" x2="28" y2="56" gradientUnits="userSpaceOnUse">
<stop stop-color="#63BC87"/>
<stop offset="1" stop-color="#51B078"/>
</linearGradient>
<linearGradient id="paint1_linear" x1="28" y1="44.123" x2="28" y2="6.69945" gradientUnits="userSpaceOnUse">
<stop stop-color="#B7DEC7"/>
<stop offset="0.62" stop-color="#E7F4EC"/>
<stop offset="1" stop-color="white"/>
</linearGradient>
<linearGradient id="paint2_linear" x1="27.6524" y1="38.9148" x2="27.6524" y2="22.4468" gradientUnits="userSpaceOnUse">
<stop stop-color="#7AC397"/>
<stop offset="0.01" stop-color="#7CC498"/>
<stop offset="0.24" stop-color="#96CFAD"/>
<stop offset="0.48" stop-color="#A8D7BB"/>
<stop offset="0.73" stop-color="#B3DCC4"/>
<stop offset="1" stop-color="#B7DEC7"/>
</linearGradient>
</defs>
</svg>
