<svg
              xmlns="http://www.w3.org/2000/svg"
              width="70"
              height="70"
              fill="none"
              viewBox="0 0 70 70"
            >
              <path
                fill="#858585"
                d="M31.772 36.86H22.81c-.823 0-1.49.669-1.49 1.494v8.98c0 .825.667 1.494 1.49 1.494h8.962c.823 0 1.49-.669 1.49-1.493v-8.981c0-.825-.667-1.494-1.49-1.494zM47.19 36.86H38.23c-.823 0-1.49.669-1.49 1.494v8.98c0 .825.667 1.494 1.49 1.494h8.961c.823 0 1.49-.669 1.49-1.493v-8.981c0-.825-.667-1.494-1.49-1.494zM31.772 21.172H22.81c-.823 0-1.49.669-1.49 1.493v8.981c0 .825.667 1.494 1.49 1.494h8.962c.823 0 1.49-.669 1.49-1.494v-8.98c0-.825-.667-1.494-1.49-1.494zM47.19 21.172H38.23c-.823 0-1.49.669-1.49 1.493v8.981c0 .825.667 1.494 1.49 1.494h8.961c.823 0 1.49-.669 1.49-1.494v-8.98c0-.825-.667-1.494-1.49-1.494z"
              ></path>
            </svg>