 <svg
              xmlns="http://www.w3.org/2000/svg"
              id="Layer_1"
              width="166px"
              height="166px"
              viewBox="0 0 166 166"
            >
              <path
                fill="#fff"
                d="M111.31 67.12v45.09a5.26 5.26 0 0 1-5.26 5.26H53.64a5.26 5.26 0 0 1-5.26-5.26V59.8a5.27 5.27 0 0 1 5.26-5.26h42.09"
              ></path>
              <path
                fill="#fff"
                stroke="#40cd92"
                stroke-width="4"
                d="M87.49 88.93l-15.58 3.68 3.46-15.42A10 10 0 0 1 78 72.33L106.27 44a5 5 0 0 1 7-.06l7.1 6.92a5 5 0 0 1 0 7.11L92.28 86.25a10 10 0 0 1-4.79 2.68z"
              ></path>
            </svg>