<svg
              xmlns="http://www.w3.org/2000/svg"
              width="70"
              height="70"
              fill="none"
              viewBox="0 0 70 70"
            >
              <path
                fill="#858585"
                d="M33.253 22.24c-2.862.001-5.66.853-8.038 2.448-2.379 1.595-4.232 3.86-5.326 6.511-1.094 2.65-1.38 5.567-.82 8.38.56 2.812 1.94 5.395 3.964 7.423 2.025 2.027 4.604 3.407 7.41 3.965 2.808.559 5.718.27 8.361-.828 2.644-1.099 4.903-2.958 6.493-5.343 1.589-2.386 2.437-5.19 2.436-8.058h-14.48V22.239z"
              ></path>
              <path
                fill="#858585"
                d="M51.206 33.262c0-3.846-1.525-7.535-4.239-10.255-2.714-2.72-6.395-4.248-10.233-4.248v14.503h14.472z"
              ></path>
            </svg>